<mxfile host="app.diagrams.net" agent="Mozilla/5.0 (Windows NT 10.0; Win64; x64) AppleWebKit/537.36 (KHTML, like Gecko) Chrome/141.0.0.0 Safari/537.36" version="28.2.7">
  <diagram name="Page-1" id="N0-3Y3_MwSgzkgmbjU14">
    <mxGraphModel dx="2593" dy="1413" grid="1" gridSize="10" guides="1" tooltips="1" connect="1" arrows="1" fold="1" page="1" pageScale="1" pageWidth="850" pageHeight="1100" math="0" shadow="0">
      <root>
        <mxCell id="0" />
        <mxCell id="1" parent="0" />
        <mxCell id="5we9uwY15FYQugueQgFQ-1" value="CLIENTE" style="whiteSpace=wrap;html=1;align=center;fillColor=#dae8fc;strokeColor=#6c8ebf;" vertex="1" parent="1">
          <mxGeometry x="400" y="320" width="100" height="40" as="geometry" />
        </mxCell>
        <mxCell id="5we9uwY15FYQugueQgFQ-2" value="VENDAS" style="whiteSpace=wrap;html=1;align=center;fillColor=#d5e8d4;strokeColor=#82b366;" vertex="1" parent="1">
          <mxGeometry x="790" y="320" width="100" height="40" as="geometry" />
        </mxCell>
        <mxCell id="5we9uwY15FYQugueQgFQ-3" value="Realiza" style="shape=rhombus;perimeter=rhombusPerimeter;whiteSpace=wrap;html=1;align=center;" vertex="1" parent="1">
          <mxGeometry x="600" y="320" width="70" height="40" as="geometry" />
        </mxCell>
        <mxCell id="5we9uwY15FYQugueQgFQ-4" value="" style="edgeStyle=entityRelationEdgeStyle;fontSize=12;html=1;endArrow=ERoneToMany;rounded=0;entryX=0;entryY=0.5;entryDx=0;entryDy=0;exitX=1;exitY=0.5;exitDx=0;exitDy=0;" edge="1" parent="1" source="5we9uwY15FYQugueQgFQ-3" target="5we9uwY15FYQugueQgFQ-2">
          <mxGeometry width="100" height="100" relative="1" as="geometry">
            <mxPoint x="580" y="410" as="sourcePoint" />
            <mxPoint x="680" y="310" as="targetPoint" />
          </mxGeometry>
        </mxCell>
        <mxCell id="5we9uwY15FYQugueQgFQ-7" value="(1, n)" style="edgeLabel;html=1;align=center;verticalAlign=middle;resizable=0;points=[];" vertex="1" connectable="0" parent="5we9uwY15FYQugueQgFQ-4">
          <mxGeometry x="-0.0276" y="2" relative="1" as="geometry">
            <mxPoint as="offset" />
          </mxGeometry>
        </mxCell>
        <mxCell id="5we9uwY15FYQugueQgFQ-5" value="" style="edgeStyle=entityRelationEdgeStyle;fontSize=12;html=1;endArrow=ERmandOne;startArrow=ERmandOne;rounded=0;entryX=0;entryY=0.5;entryDx=0;entryDy=0;exitX=1;exitY=0.5;exitDx=0;exitDy=0;" edge="1" parent="1" source="5we9uwY15FYQugueQgFQ-1" target="5we9uwY15FYQugueQgFQ-3">
          <mxGeometry width="100" height="100" relative="1" as="geometry">
            <mxPoint x="580" y="410" as="sourcePoint" />
            <mxPoint x="680" y="310" as="targetPoint" />
          </mxGeometry>
        </mxCell>
        <mxCell id="5we9uwY15FYQugueQgFQ-6" value="(1, 1)" style="edgeLabel;html=1;align=center;verticalAlign=middle;resizable=0;points=[];" vertex="1" connectable="0" parent="5we9uwY15FYQugueQgFQ-5">
          <mxGeometry x="-0.0276" y="1" relative="1" as="geometry">
            <mxPoint as="offset" />
          </mxGeometry>
        </mxCell>
        <mxCell id="5we9uwY15FYQugueQgFQ-8" value="VENDEDOR" style="whiteSpace=wrap;html=1;align=center;fillColor=#e1d5e7;strokeColor=#9673a6;" vertex="1" parent="1">
          <mxGeometry x="1210" y="320" width="100" height="40" as="geometry" />
        </mxCell>
        <mxCell id="5we9uwY15FYQugueQgFQ-9" value="Realiza" style="shape=rhombus;perimeter=rhombusPerimeter;whiteSpace=wrap;html=1;align=center;" vertex="1" parent="1">
          <mxGeometry x="1010" y="320" width="80" height="40" as="geometry" />
        </mxCell>
        <mxCell id="5we9uwY15FYQugueQgFQ-10" value="" style="edgeStyle=entityRelationEdgeStyle;fontSize=12;html=1;endArrow=ERoneToMany;rounded=0;entryX=1;entryY=0.5;entryDx=0;entryDy=0;exitX=0;exitY=0.5;exitDx=0;exitDy=0;" edge="1" parent="1" source="5we9uwY15FYQugueQgFQ-9" target="5we9uwY15FYQugueQgFQ-2">
          <mxGeometry width="100" height="100" relative="1" as="geometry">
            <mxPoint x="910" y="460" as="sourcePoint" />
            <mxPoint x="1010" y="360" as="targetPoint" />
          </mxGeometry>
        </mxCell>
        <mxCell id="5we9uwY15FYQugueQgFQ-11" value="(1, n)" style="edgeLabel;html=1;align=center;verticalAlign=middle;resizable=0;points=[];" vertex="1" connectable="0" parent="5we9uwY15FYQugueQgFQ-10">
          <mxGeometry x="-0.0008" y="1" relative="1" as="geometry">
            <mxPoint as="offset" />
          </mxGeometry>
        </mxCell>
        <mxCell id="5we9uwY15FYQugueQgFQ-12" value="" style="edgeStyle=entityRelationEdgeStyle;fontSize=12;html=1;endArrow=ERmandOne;startArrow=ERmandOne;rounded=0;entryX=0;entryY=0.5;entryDx=0;entryDy=0;exitX=1;exitY=0.5;exitDx=0;exitDy=0;" edge="1" parent="1" source="5we9uwY15FYQugueQgFQ-9" target="5we9uwY15FYQugueQgFQ-8">
          <mxGeometry width="100" height="100" relative="1" as="geometry">
            <mxPoint x="970" y="410" as="sourcePoint" />
            <mxPoint x="1070" y="310" as="targetPoint" />
          </mxGeometry>
        </mxCell>
        <mxCell id="5we9uwY15FYQugueQgFQ-13" value="(1, 1)" style="edgeLabel;html=1;align=center;verticalAlign=middle;resizable=0;points=[];" vertex="1" connectable="0" parent="5we9uwY15FYQugueQgFQ-12">
          <mxGeometry x="0.0167" relative="1" as="geometry">
            <mxPoint as="offset" />
          </mxGeometry>
        </mxCell>
        <mxCell id="5we9uwY15FYQugueQgFQ-14" value="Contém" style="shape=rhombus;perimeter=rhombusPerimeter;whiteSpace=wrap;html=1;align=center;" vertex="1" parent="1">
          <mxGeometry x="800" y="440" width="80" height="40" as="geometry" />
        </mxCell>
        <mxCell id="5we9uwY15FYQugueQgFQ-15" value="PRODUTOS" style="whiteSpace=wrap;html=1;align=center;fillColor=#f8cecc;strokeColor=#b85450;" vertex="1" parent="1">
          <mxGeometry x="790" y="780" width="100" height="40" as="geometry" />
        </mxCell>
        <mxCell id="5we9uwY15FYQugueQgFQ-20" value="ITEM_VENDA" style="whiteSpace=wrap;html=1;align=center;fillColor=#fff2cc;strokeColor=#d6b656;" vertex="1" parent="1">
          <mxGeometry x="790" y="560" width="100" height="40" as="geometry" />
        </mxCell>
        <mxCell id="5we9uwY15FYQugueQgFQ-22" value="" style="edgeStyle=entityRelationEdgeStyle;fontSize=12;html=1;endArrow=ERoneToMany;rounded=0;entryX=0.5;entryY=0;entryDx=0;entryDy=0;exitX=0.5;exitY=1;exitDx=0;exitDy=0;" edge="1" parent="1" source="5we9uwY15FYQugueQgFQ-14" target="5we9uwY15FYQugueQgFQ-20">
          <mxGeometry width="100" height="100" relative="1" as="geometry">
            <mxPoint x="820" y="650" as="sourcePoint" />
            <mxPoint x="920" y="550" as="targetPoint" />
          </mxGeometry>
        </mxCell>
        <mxCell id="5we9uwY15FYQugueQgFQ-23" value="(1, n)" style="edgeLabel;html=1;align=center;verticalAlign=middle;resizable=0;points=[];" vertex="1" connectable="0" parent="5we9uwY15FYQugueQgFQ-22">
          <mxGeometry x="0.0167" relative="1" as="geometry">
            <mxPoint as="offset" />
          </mxGeometry>
        </mxCell>
        <mxCell id="5we9uwY15FYQugueQgFQ-24" value="" style="edgeStyle=entityRelationEdgeStyle;fontSize=12;html=1;endArrow=ERoneToMany;rounded=0;entryX=0.5;entryY=0;entryDx=0;entryDy=0;exitX=0.5;exitY=1;exitDx=0;exitDy=0;" edge="1" parent="1" source="5we9uwY15FYQugueQgFQ-2" target="5we9uwY15FYQugueQgFQ-14">
          <mxGeometry width="100" height="100" relative="1" as="geometry">
            <mxPoint x="890" y="420" as="sourcePoint" />
            <mxPoint x="890" y="500" as="targetPoint" />
          </mxGeometry>
        </mxCell>
        <mxCell id="5we9uwY15FYQugueQgFQ-25" value="(1, n)" style="edgeLabel;html=1;align=center;verticalAlign=middle;resizable=0;points=[];" vertex="1" connectable="0" parent="5we9uwY15FYQugueQgFQ-24">
          <mxGeometry x="0.0167" relative="1" as="geometry">
            <mxPoint as="offset" />
          </mxGeometry>
        </mxCell>
        <mxCell id="5we9uwY15FYQugueQgFQ-26" value="Contém" style="shape=rhombus;perimeter=rhombusPerimeter;whiteSpace=wrap;html=1;align=center;" vertex="1" parent="1">
          <mxGeometry x="800" y="670" width="80" height="40" as="geometry" />
        </mxCell>
        <mxCell id="5we9uwY15FYQugueQgFQ-27" value="" style="edgeStyle=entityRelationEdgeStyle;fontSize=12;html=1;endArrow=ERoneToMany;rounded=0;entryX=0.5;entryY=0;entryDx=0;entryDy=0;exitX=0.5;exitY=1;exitDx=0;exitDy=0;" edge="1" parent="1" source="5we9uwY15FYQugueQgFQ-20" target="5we9uwY15FYQugueQgFQ-26">
          <mxGeometry width="100" height="100" relative="1" as="geometry">
            <mxPoint x="920" y="660" as="sourcePoint" />
            <mxPoint x="920" y="740" as="targetPoint" />
          </mxGeometry>
        </mxCell>
        <mxCell id="5we9uwY15FYQugueQgFQ-28" value="(1, n)" style="edgeLabel;html=1;align=center;verticalAlign=middle;resizable=0;points=[];" vertex="1" connectable="0" parent="5we9uwY15FYQugueQgFQ-27">
          <mxGeometry x="0.0167" relative="1" as="geometry">
            <mxPoint as="offset" />
          </mxGeometry>
        </mxCell>
        <mxCell id="5we9uwY15FYQugueQgFQ-29" value="" style="edgeStyle=entityRelationEdgeStyle;fontSize=12;html=1;endArrow=ERoneToMany;rounded=0;entryX=0.5;entryY=1;entryDx=0;entryDy=0;exitX=0.5;exitY=0;exitDx=0;exitDy=0;" edge="1" parent="1" source="5we9uwY15FYQugueQgFQ-15" target="5we9uwY15FYQugueQgFQ-26">
          <mxGeometry width="100" height="100" relative="1" as="geometry">
            <mxPoint x="1020" y="650" as="sourcePoint" />
            <mxPoint x="1020" y="730" as="targetPoint" />
          </mxGeometry>
        </mxCell>
        <mxCell id="5we9uwY15FYQugueQgFQ-30" value="(1, n)" style="edgeLabel;html=1;align=center;verticalAlign=middle;resizable=0;points=[];" vertex="1" connectable="0" parent="5we9uwY15FYQugueQgFQ-29">
          <mxGeometry x="0.0167" relative="1" as="geometry">
            <mxPoint as="offset" />
          </mxGeometry>
        </mxCell>
        <mxCell id="5we9uwY15FYQugueQgFQ-38" style="edgeStyle=orthogonalEdgeStyle;shape=connector;rounded=0;orthogonalLoop=1;jettySize=auto;html=1;entryX=0.25;entryY=0;entryDx=0;entryDy=0;strokeColor=default;align=center;verticalAlign=middle;fontFamily=Helvetica;fontSize=11;fontColor=default;labelBackgroundColor=default;endArrow=none;endFill=0;" edge="1" parent="1" source="5we9uwY15FYQugueQgFQ-31" target="5we9uwY15FYQugueQgFQ-1">
          <mxGeometry relative="1" as="geometry" />
        </mxCell>
        <mxCell id="5we9uwY15FYQugueQgFQ-31" value="CPF" style="ellipse;whiteSpace=wrap;html=1;align=center;fontStyle=4;" vertex="1" parent="1">
          <mxGeometry x="360" y="240" width="60" height="40" as="geometry" />
        </mxCell>
        <mxCell id="5we9uwY15FYQugueQgFQ-36" style="edgeStyle=orthogonalEdgeStyle;shape=connector;rounded=0;orthogonalLoop=1;jettySize=auto;html=1;entryX=0.75;entryY=1;entryDx=0;entryDy=0;strokeColor=default;align=center;verticalAlign=middle;fontFamily=Helvetica;fontSize=11;fontColor=default;labelBackgroundColor=default;endArrow=none;endFill=0;" edge="1" parent="1" source="5we9uwY15FYQugueQgFQ-32" target="5we9uwY15FYQugueQgFQ-1">
          <mxGeometry relative="1" as="geometry" />
        </mxCell>
        <mxCell id="5we9uwY15FYQugueQgFQ-32" value="Nome" style="ellipse;whiteSpace=wrap;html=1;align=center;" vertex="1" parent="1">
          <mxGeometry x="490" y="400" width="60" height="40" as="geometry" />
        </mxCell>
        <mxCell id="5we9uwY15FYQugueQgFQ-37" style="edgeStyle=orthogonalEdgeStyle;shape=connector;rounded=0;orthogonalLoop=1;jettySize=auto;html=1;entryX=0;entryY=0.5;entryDx=0;entryDy=0;strokeColor=default;align=center;verticalAlign=middle;fontFamily=Helvetica;fontSize=11;fontColor=default;labelBackgroundColor=default;endArrow=none;endFill=0;" edge="1" parent="1" source="5we9uwY15FYQugueQgFQ-33" target="5we9uwY15FYQugueQgFQ-1">
          <mxGeometry relative="1" as="geometry" />
        </mxCell>
        <mxCell id="5we9uwY15FYQugueQgFQ-33" value="Telefone" style="ellipse;whiteSpace=wrap;html=1;align=center;" vertex="1" parent="1">
          <mxGeometry x="330" y="370" width="70" height="40" as="geometry" />
        </mxCell>
        <mxCell id="5we9uwY15FYQugueQgFQ-35" style="edgeStyle=orthogonalEdgeStyle;rounded=0;orthogonalLoop=1;jettySize=auto;html=1;entryX=0.5;entryY=1;entryDx=0;entryDy=0;endArrow=none;endFill=0;" edge="1" parent="1" source="5we9uwY15FYQugueQgFQ-34" target="5we9uwY15FYQugueQgFQ-1">
          <mxGeometry relative="1" as="geometry" />
        </mxCell>
        <mxCell id="5we9uwY15FYQugueQgFQ-34" value="Endereço" style="ellipse;whiteSpace=wrap;html=1;align=center;" vertex="1" parent="1">
          <mxGeometry x="400" y="420" width="80" height="40" as="geometry" />
        </mxCell>
        <mxCell id="5we9uwY15FYQugueQgFQ-48" style="edgeStyle=orthogonalEdgeStyle;shape=connector;rounded=0;orthogonalLoop=1;jettySize=auto;html=1;entryX=1;entryY=0.5;entryDx=0;entryDy=0;strokeColor=default;align=center;verticalAlign=middle;fontFamily=Helvetica;fontSize=11;fontColor=default;labelBackgroundColor=default;endArrow=none;endFill=0;" edge="1" parent="1" source="5we9uwY15FYQugueQgFQ-39" target="5we9uwY15FYQugueQgFQ-15">
          <mxGeometry relative="1" as="geometry" />
        </mxCell>
        <mxCell id="5we9uwY15FYQugueQgFQ-39" value="Código" style="ellipse;whiteSpace=wrap;html=1;align=center;fontStyle=4;" vertex="1" parent="1">
          <mxGeometry x="950" y="780" width="60" height="40" as="geometry" />
        </mxCell>
        <mxCell id="5we9uwY15FYQugueQgFQ-44" style="edgeStyle=orthogonalEdgeStyle;shape=connector;rounded=0;orthogonalLoop=1;jettySize=auto;html=1;entryX=0;entryY=0.5;entryDx=0;entryDy=0;strokeColor=default;align=center;verticalAlign=middle;fontFamily=Helvetica;fontSize=11;fontColor=default;labelBackgroundColor=default;endArrow=none;endFill=0;" edge="1" parent="1" source="5we9uwY15FYQugueQgFQ-40" target="5we9uwY15FYQugueQgFQ-15">
          <mxGeometry relative="1" as="geometry" />
        </mxCell>
        <mxCell id="5we9uwY15FYQugueQgFQ-40" value="Descrição" style="ellipse;whiteSpace=wrap;html=1;align=center;" vertex="1" parent="1">
          <mxGeometry x="670" y="810" width="70" height="40" as="geometry" />
        </mxCell>
        <mxCell id="5we9uwY15FYQugueQgFQ-45" style="edgeStyle=orthogonalEdgeStyle;shape=connector;rounded=0;orthogonalLoop=1;jettySize=auto;html=1;entryX=0.25;entryY=1;entryDx=0;entryDy=0;strokeColor=default;align=center;verticalAlign=middle;fontFamily=Helvetica;fontSize=11;fontColor=default;labelBackgroundColor=default;endArrow=none;endFill=0;" edge="1" parent="1" source="5we9uwY15FYQugueQgFQ-41" target="5we9uwY15FYQugueQgFQ-15">
          <mxGeometry relative="1" as="geometry" />
        </mxCell>
        <mxCell id="5we9uwY15FYQugueQgFQ-41" value="Preço&lt;br&gt;Venda" style="ellipse;whiteSpace=wrap;html=1;align=center;" vertex="1" parent="1">
          <mxGeometry x="750" y="860" width="70" height="40" as="geometry" />
        </mxCell>
        <mxCell id="5we9uwY15FYQugueQgFQ-46" style="edgeStyle=orthogonalEdgeStyle;shape=connector;rounded=0;orthogonalLoop=1;jettySize=auto;html=1;entryX=0.5;entryY=1;entryDx=0;entryDy=0;strokeColor=default;align=center;verticalAlign=middle;fontFamily=Helvetica;fontSize=11;fontColor=default;labelBackgroundColor=default;endArrow=none;endFill=0;" edge="1" parent="1" source="5we9uwY15FYQugueQgFQ-42" target="5we9uwY15FYQugueQgFQ-15">
          <mxGeometry relative="1" as="geometry" />
        </mxCell>
        <mxCell id="5we9uwY15FYQugueQgFQ-42" value="Estoque" style="ellipse;whiteSpace=wrap;html=1;align=center;" vertex="1" parent="1">
          <mxGeometry x="840" y="860" width="60" height="40" as="geometry" />
        </mxCell>
        <mxCell id="5we9uwY15FYQugueQgFQ-47" style="edgeStyle=orthogonalEdgeStyle;shape=connector;rounded=0;orthogonalLoop=1;jettySize=auto;html=1;entryX=1;entryY=1;entryDx=0;entryDy=0;strokeColor=default;align=center;verticalAlign=middle;fontFamily=Helvetica;fontSize=11;fontColor=default;labelBackgroundColor=default;endArrow=none;endFill=0;" edge="1" parent="1" source="5we9uwY15FYQugueQgFQ-43" target="5we9uwY15FYQugueQgFQ-15">
          <mxGeometry relative="1" as="geometry">
            <Array as="points">
              <mxPoint x="890" y="840" />
            </Array>
          </mxGeometry>
        </mxCell>
        <mxCell id="5we9uwY15FYQugueQgFQ-43" value="Categoria" style="ellipse;whiteSpace=wrap;html=1;align=center;" vertex="1" parent="1">
          <mxGeometry x="910" y="840" width="70" height="40" as="geometry" />
        </mxCell>
        <mxCell id="5we9uwY15FYQugueQgFQ-56" style="edgeStyle=orthogonalEdgeStyle;shape=connector;rounded=0;orthogonalLoop=1;jettySize=auto;html=1;entryX=0.5;entryY=0;entryDx=0;entryDy=0;strokeColor=default;align=center;verticalAlign=middle;fontFamily=Helvetica;fontSize=11;fontColor=default;labelBackgroundColor=default;endArrow=none;endFill=0;" edge="1" parent="1" source="5we9uwY15FYQugueQgFQ-49" target="5we9uwY15FYQugueQgFQ-8">
          <mxGeometry relative="1" as="geometry" />
        </mxCell>
        <mxCell id="5we9uwY15FYQugueQgFQ-49" value="Matrícula" style="ellipse;whiteSpace=wrap;html=1;align=center;fontStyle=4;" vertex="1" parent="1">
          <mxGeometry x="1205" y="210" width="70" height="40" as="geometry" />
        </mxCell>
        <mxCell id="5we9uwY15FYQugueQgFQ-54" style="edgeStyle=orthogonalEdgeStyle;shape=connector;rounded=0;orthogonalLoop=1;jettySize=auto;html=1;entryX=1;entryY=0.5;entryDx=0;entryDy=0;strokeColor=default;align=center;verticalAlign=middle;fontFamily=Helvetica;fontSize=11;fontColor=default;labelBackgroundColor=default;endArrow=none;endFill=0;" edge="1" parent="1" source="5we9uwY15FYQugueQgFQ-50" target="5we9uwY15FYQugueQgFQ-8">
          <mxGeometry relative="1" as="geometry" />
        </mxCell>
        <mxCell id="5we9uwY15FYQugueQgFQ-50" value="Nome" style="ellipse;whiteSpace=wrap;html=1;align=center;" vertex="1" parent="1">
          <mxGeometry x="1360" y="320" width="50" height="40" as="geometry" />
        </mxCell>
        <mxCell id="5we9uwY15FYQugueQgFQ-53" style="edgeStyle=orthogonalEdgeStyle;shape=connector;rounded=0;orthogonalLoop=1;jettySize=auto;html=1;entryX=0.75;entryY=1;entryDx=0;entryDy=0;strokeColor=default;align=center;verticalAlign=middle;fontFamily=Helvetica;fontSize=11;fontColor=default;labelBackgroundColor=default;endArrow=none;endFill=0;" edge="1" parent="1" source="5we9uwY15FYQugueQgFQ-51" target="5we9uwY15FYQugueQgFQ-8">
          <mxGeometry relative="1" as="geometry" />
        </mxCell>
        <mxCell id="5we9uwY15FYQugueQgFQ-51" value="Cargo" style="ellipse;whiteSpace=wrap;html=1;align=center;" vertex="1" parent="1">
          <mxGeometry x="1330" y="390" width="50" height="40" as="geometry" />
        </mxCell>
        <mxCell id="5we9uwY15FYQugueQgFQ-55" style="edgeStyle=orthogonalEdgeStyle;shape=connector;rounded=0;orthogonalLoop=1;jettySize=auto;html=1;entryX=0.75;entryY=0;entryDx=0;entryDy=0;strokeColor=default;align=center;verticalAlign=middle;fontFamily=Helvetica;fontSize=11;fontColor=default;labelBackgroundColor=default;endArrow=none;endFill=0;" edge="1" parent="1" source="5we9uwY15FYQugueQgFQ-52" target="5we9uwY15FYQugueQgFQ-8">
          <mxGeometry relative="1" as="geometry" />
        </mxCell>
        <mxCell id="5we9uwY15FYQugueQgFQ-52" value="Comissão" style="ellipse;whiteSpace=wrap;html=1;align=center;" vertex="1" parent="1">
          <mxGeometry x="1320" y="250" width="70" height="40" as="geometry" />
        </mxCell>
        <mxCell id="5we9uwY15FYQugueQgFQ-62" style="edgeStyle=orthogonalEdgeStyle;shape=connector;rounded=0;orthogonalLoop=1;jettySize=auto;html=1;entryX=0;entryY=0.25;entryDx=0;entryDy=0;strokeColor=default;align=center;verticalAlign=middle;fontFamily=Helvetica;fontSize=11;fontColor=default;labelBackgroundColor=default;endArrow=none;endFill=0;" edge="1" parent="1" source="5we9uwY15FYQugueQgFQ-57" target="5we9uwY15FYQugueQgFQ-2">
          <mxGeometry relative="1" as="geometry" />
        </mxCell>
        <mxCell id="5we9uwY15FYQugueQgFQ-57" value="Código" style="ellipse;whiteSpace=wrap;html=1;align=center;fontStyle=4;" vertex="1" parent="1">
          <mxGeometry x="770" y="230" width="60" height="40" as="geometry" />
        </mxCell>
        <mxCell id="5we9uwY15FYQugueQgFQ-63" style="edgeStyle=orthogonalEdgeStyle;shape=connector;rounded=0;orthogonalLoop=1;jettySize=auto;html=1;entryX=0.5;entryY=0;entryDx=0;entryDy=0;strokeColor=default;align=center;verticalAlign=middle;fontFamily=Helvetica;fontSize=11;fontColor=default;labelBackgroundColor=default;endArrow=none;endFill=0;" edge="1" parent="1" source="5we9uwY15FYQugueQgFQ-58" target="5we9uwY15FYQugueQgFQ-2">
          <mxGeometry relative="1" as="geometry" />
        </mxCell>
        <mxCell id="5we9uwY15FYQugueQgFQ-58" value="Data" style="ellipse;whiteSpace=wrap;html=1;align=center;" vertex="1" parent="1">
          <mxGeometry x="840" y="230" width="50" height="40" as="geometry" />
        </mxCell>
        <mxCell id="5we9uwY15FYQugueQgFQ-64" style="edgeStyle=orthogonalEdgeStyle;shape=connector;rounded=0;orthogonalLoop=1;jettySize=auto;html=1;entryX=1;entryY=0.25;entryDx=0;entryDy=0;strokeColor=default;align=center;verticalAlign=middle;fontFamily=Helvetica;fontSize=11;fontColor=default;labelBackgroundColor=default;endArrow=none;endFill=0;" edge="1" parent="1" source="5we9uwY15FYQugueQgFQ-59" target="5we9uwY15FYQugueQgFQ-2">
          <mxGeometry relative="1" as="geometry">
            <Array as="points">
              <mxPoint x="900" y="310" />
              <mxPoint x="910" y="310" />
              <mxPoint x="910" y="330" />
            </Array>
          </mxGeometry>
        </mxCell>
        <mxCell id="5we9uwY15FYQugueQgFQ-59" value="Forma&lt;br&gt;Pagamento" style="ellipse;whiteSpace=wrap;html=1;align=center;" vertex="1" parent="1">
          <mxGeometry x="900" y="230" width="90" height="60" as="geometry" />
        </mxCell>
        <mxCell id="5we9uwY15FYQugueQgFQ-61" style="edgeStyle=orthogonalEdgeStyle;shape=connector;rounded=0;orthogonalLoop=1;jettySize=auto;html=1;entryX=0.25;entryY=1;entryDx=0;entryDy=0;strokeColor=default;align=center;verticalAlign=middle;fontFamily=Helvetica;fontSize=11;fontColor=default;labelBackgroundColor=default;endArrow=none;endFill=0;" edge="1" parent="1" source="5we9uwY15FYQugueQgFQ-60" target="5we9uwY15FYQugueQgFQ-2">
          <mxGeometry relative="1" as="geometry" />
        </mxCell>
        <mxCell id="5we9uwY15FYQugueQgFQ-60" value="Valor&lt;br&gt;Total" style="ellipse;whiteSpace=wrap;html=1;align=center;" vertex="1" parent="1">
          <mxGeometry x="700" y="365" width="60" height="50" as="geometry" />
        </mxCell>
        <mxCell id="5we9uwY15FYQugueQgFQ-67" style="edgeStyle=orthogonalEdgeStyle;shape=connector;rounded=0;orthogonalLoop=1;jettySize=auto;html=1;entryX=1;entryY=0.5;entryDx=0;entryDy=0;strokeColor=default;align=center;verticalAlign=middle;fontFamily=Helvetica;fontSize=11;fontColor=default;labelBackgroundColor=default;endArrow=none;endFill=0;" edge="1" parent="1" source="5we9uwY15FYQugueQgFQ-65" target="5we9uwY15FYQugueQgFQ-20">
          <mxGeometry relative="1" as="geometry" />
        </mxCell>
        <mxCell id="5we9uwY15FYQugueQgFQ-65" value="Quantidade" style="ellipse;whiteSpace=wrap;html=1;align=center;" vertex="1" parent="1">
          <mxGeometry x="930" y="560" width="80" height="40" as="geometry" />
        </mxCell>
        <mxCell id="5we9uwY15FYQugueQgFQ-68" style="edgeStyle=orthogonalEdgeStyle;shape=connector;rounded=0;orthogonalLoop=1;jettySize=auto;html=1;entryX=0;entryY=0.5;entryDx=0;entryDy=0;strokeColor=default;align=center;verticalAlign=middle;fontFamily=Helvetica;fontSize=11;fontColor=default;labelBackgroundColor=default;endArrow=none;endFill=0;" edge="1" parent="1" source="5we9uwY15FYQugueQgFQ-66" target="5we9uwY15FYQugueQgFQ-20">
          <mxGeometry relative="1" as="geometry" />
        </mxCell>
        <mxCell id="5we9uwY15FYQugueQgFQ-66" value="Valor&lt;br&gt;Unidade" style="ellipse;whiteSpace=wrap;html=1;align=center;" vertex="1" parent="1">
          <mxGeometry x="680" y="555" width="60" height="50" as="geometry" />
        </mxCell>
        <mxCell id="5we9uwY15FYQugueQgFQ-69" value="&lt;b&gt;CLIENTE &lt;/b&gt;(&lt;u&gt;CliCPF&lt;/u&gt;, CliNome, CliTel, CliEnd)" style="text;html=1;whiteSpace=wrap;strokeColor=none;fillColor=none;align=center;verticalAlign=middle;rounded=0;fontFamily=Helvetica;fontSize=11;fontColor=default;labelBackgroundColor=default;" vertex="1" parent="1">
          <mxGeometry x="260" y="502.5" width="220" height="30" as="geometry" />
        </mxCell>
        <mxCell id="5we9uwY15FYQugueQgFQ-70" value="&lt;b&gt;VENDAS &lt;/b&gt;(&lt;u&gt;VendaCod&lt;/u&gt;, VendaData, VendaFormPag, VendasValor)" style="text;html=1;whiteSpace=wrap;strokeColor=none;fillColor=none;align=center;verticalAlign=middle;rounded=0;fontFamily=Helvetica;fontSize=11;fontColor=default;labelBackgroundColor=default;" vertex="1" parent="1">
          <mxGeometry x="260" y="532.5" width="330" height="30" as="geometry" />
        </mxCell>
        <mxCell id="5we9uwY15FYQugueQgFQ-71" value="&lt;b&gt;VENDEDOR &lt;/b&gt;(&lt;u&gt;VendMatricula&lt;/u&gt;, VendComissao, VendNome, VendCargo)" style="text;html=1;whiteSpace=wrap;strokeColor=none;fillColor=none;align=center;verticalAlign=middle;rounded=0;fontFamily=Helvetica;fontSize=11;fontColor=default;labelBackgroundColor=default;" vertex="1" parent="1">
          <mxGeometry x="260" y="562.5" width="350" height="30" as="geometry" />
        </mxCell>
        <mxCell id="5we9uwY15FYQugueQgFQ-72" value="&lt;b&gt;ITEM_VENDA &lt;/b&gt;(Item_vendaQuantidade, Item_vendaValor,&amp;nbsp;&lt;u&gt;ProdCodigo&lt;/u&gt;)" style="text;html=1;whiteSpace=wrap;strokeColor=none;fillColor=none;align=center;verticalAlign=middle;rounded=0;fontFamily=Helvetica;fontSize=11;fontColor=default;labelBackgroundColor=default;" vertex="1" parent="1">
          <mxGeometry x="260" y="592.5" width="350" height="30" as="geometry" />
        </mxCell>
        <mxCell id="5we9uwY15FYQugueQgFQ-73" value="&lt;b&gt;PRODUTOS &lt;/b&gt;(&lt;u&gt;ProdCodigo&lt;/u&gt;, ProdDesc, ProdPrecoVenda, ProdEstq, ProdCat)" style="text;html=1;whiteSpace=wrap;strokeColor=none;fillColor=none;align=center;verticalAlign=middle;rounded=0;fontFamily=Helvetica;fontSize=11;fontColor=default;labelBackgroundColor=default;" vertex="1" parent="1">
          <mxGeometry x="260" y="627.5" width="380" height="30" as="geometry" />
        </mxCell>
        <mxCell id="5we9uwY15FYQugueQgFQ-74" value="&lt;b&gt;VENDAS &lt;/b&gt;(&lt;u&gt;VendaCod&lt;/u&gt;, VendaData, VendaFormPag, VendasValor)" style="text;html=1;whiteSpace=wrap;strokeColor=none;fillColor=none;align=center;verticalAlign=middle;rounded=0;fontFamily=Helvetica;fontSize=11;fontColor=default;labelBackgroundColor=default;" vertex="1" parent="1">
          <mxGeometry x="260" y="532.5" width="330" height="30" as="geometry" />
        </mxCell>
      </root>
    </mxGraphModel>
  </diagram>
</mxfile>
